<svg width="1024" height="41" viewBox="0 0 1024 41" fill="none" xmlns="http://www.w3.org/2000/svg">
<rect width="1024" height="40.7826" rx="15" fill="#AA9DED"/>
<path d="M471.264 27V12.4545H477.003C478.101 12.4545 479.039 12.651 479.815 13.044C480.597 13.4323 481.191 13.9839 481.598 14.6989C482.01 15.4091 482.216 16.2448 482.216 17.206C482.216 18.1719 482.008 19.0028 481.591 19.6989C481.174 20.3902 480.571 20.9205 479.78 21.2898C478.994 21.6591 478.042 21.8438 476.925 21.8438H473.082V19.3722H476.428C477.015 19.3722 477.502 19.2917 477.891 19.1307C478.279 18.9697 478.568 18.7282 478.757 18.4062C478.951 18.0843 479.048 17.6842 479.048 17.206C479.048 16.723 478.951 16.3158 478.757 15.9844C478.568 15.6529 478.277 15.402 477.884 15.2315C477.495 15.0563 477.005 14.9688 476.413 14.9688H474.339V27H471.264ZM479.119 20.3807L482.734 27H479.339L475.803 20.3807H479.119ZM489.128 27.2131C488.006 27.2131 487.04 26.9858 486.23 26.5312C485.426 26.072 484.805 25.4233 484.37 24.5852C483.934 23.7424 483.716 22.7457 483.716 21.5952C483.716 20.473 483.934 19.4882 484.37 18.6406C484.805 17.7931 485.418 17.1326 486.209 16.6591C487.005 16.1856 487.937 15.9489 489.007 15.9489C489.727 15.9489 490.397 16.0649 491.017 16.2969C491.642 16.5241 492.187 16.8674 492.651 17.3267C493.12 17.786 493.484 18.3636 493.745 19.0597C494.005 19.7509 494.135 20.5606 494.135 21.4886V22.3196H484.924V20.4446H491.287C491.287 20.009 491.193 19.6231 491.003 19.2869C490.814 18.9508 490.551 18.688 490.215 18.4986C489.883 18.3045 489.498 18.2074 489.057 18.2074C488.598 18.2074 488.191 18.3139 487.836 18.527C487.485 18.7353 487.211 19.017 487.012 19.3722C486.813 19.7225 486.711 20.1132 486.706 20.544V22.3267C486.706 22.8665 486.806 23.3329 487.005 23.7259C487.208 24.1188 487.495 24.4219 487.864 24.6349C488.233 24.848 488.671 24.9545 489.178 24.9545C489.514 24.9545 489.822 24.9072 490.101 24.8125C490.381 24.7178 490.62 24.5758 490.819 24.3864C491.017 24.197 491.169 23.965 491.273 23.6903L494.071 23.875C493.929 24.5473 493.638 25.1345 493.198 25.6364C492.762 26.1335 492.199 26.5218 491.507 26.8011C490.821 27.0758 490.028 27.2131 489.128 27.2131ZM501.025 31.3182C500.044 31.3182 499.204 31.1832 498.503 30.9134C497.807 30.6482 497.253 30.286 496.841 29.8267C496.429 29.3674 496.162 28.8513 496.039 28.2784L498.837 27.902C498.922 28.1198 499.057 28.3234 499.242 28.5128C499.426 28.7022 499.67 28.8537 499.973 28.9673C500.281 29.0857 500.655 29.1449 501.096 29.1449C501.754 29.1449 502.296 28.9839 502.722 28.6619C503.153 28.3447 503.368 27.812 503.368 27.0639V25.0682H503.24C503.108 25.3712 502.909 25.6577 502.644 25.9276C502.379 26.1974 502.038 26.4176 501.621 26.5881C501.204 26.7585 500.707 26.8438 500.13 26.8438C499.31 26.8438 498.565 26.6544 497.892 26.2756C497.225 25.892 496.692 25.3073 496.294 24.5213C495.901 23.7306 495.705 22.7315 495.705 21.5241C495.705 20.2884 495.906 19.2562 496.309 18.4276C496.711 17.599 497.246 16.9787 497.914 16.5668C498.586 16.1548 499.322 15.9489 500.123 15.9489C500.733 15.9489 501.245 16.053 501.657 16.2614C502.069 16.465 502.4 16.7206 502.651 17.0284C502.907 17.3314 503.103 17.6297 503.24 17.9233H503.354V16.0909H506.358V27.1065C506.358 28.0346 506.131 28.8111 505.676 29.4361C505.222 30.0611 504.592 30.5298 503.787 30.8423C502.987 31.1596 502.066 31.3182 501.025 31.3182ZM501.088 24.571C501.576 24.571 501.988 24.4503 502.324 24.2088C502.665 23.9626 502.926 23.6122 503.105 23.1577C503.29 22.6984 503.382 22.1491 503.382 21.5099C503.382 20.8707 503.292 20.3168 503.113 19.848C502.933 19.3745 502.672 19.0076 502.331 18.7472C501.99 18.4867 501.576 18.3565 501.088 18.3565C500.591 18.3565 500.172 18.4915 499.831 18.7614C499.49 19.0265 499.232 19.3958 499.057 19.8693C498.882 20.3428 498.794 20.8897 498.794 21.5099C498.794 22.1397 498.882 22.6842 499.057 23.1435C499.237 23.598 499.495 23.9508 499.831 24.2017C500.172 24.4479 500.591 24.571 501.088 24.571ZM508.766 27V16.0909H511.792V27H508.766ZM510.286 14.6847C509.836 14.6847 509.45 14.5355 509.128 14.2372C508.811 13.9342 508.652 13.572 508.652 13.1506C508.652 12.7339 508.811 12.3764 509.128 12.0781C509.45 11.7751 509.836 11.6236 510.286 11.6236C510.736 11.6236 511.119 11.7751 511.436 12.0781C511.758 12.3764 511.919 12.7339 511.919 13.1506C511.919 13.572 511.758 13.9342 511.436 14.2372C511.119 14.5355 510.736 14.6847 510.286 14.6847ZM523.292 19.2017L520.522 19.3722C520.475 19.1354 520.373 18.9223 520.217 18.733C520.06 18.5388 519.854 18.3849 519.599 18.2713C519.348 18.1529 519.047 18.0938 518.697 18.0938C518.228 18.0938 517.833 18.1932 517.511 18.392C517.189 18.5862 517.028 18.8466 517.028 19.1733C517.028 19.4337 517.132 19.6539 517.34 19.8338C517.549 20.0137 517.906 20.1581 518.413 20.267L520.387 20.6648C521.448 20.8826 522.238 21.233 522.759 21.7159C523.28 22.1989 523.54 22.8333 523.54 23.6193C523.54 24.3343 523.33 24.9616 522.908 25.5014C522.492 26.0412 521.919 26.4626 521.19 26.7656C520.465 27.0639 519.629 27.2131 518.683 27.2131C517.238 27.2131 516.088 26.9124 515.231 26.3111C514.379 25.705 513.879 24.8812 513.732 23.8395L516.708 23.6832C516.798 24.1236 517.016 24.4598 517.362 24.6918C517.707 24.919 518.15 25.0327 518.69 25.0327C519.22 25.0327 519.646 24.9309 519.968 24.7273C520.295 24.5189 520.46 24.2514 520.465 23.9247C520.46 23.6501 520.344 23.4252 520.117 23.25C519.89 23.0701 519.54 22.9328 519.066 22.8381L517.177 22.4616C516.112 22.2486 515.318 21.8793 514.798 21.3537C514.281 20.8281 514.023 20.1581 514.023 19.3438C514.023 18.643 514.213 18.0393 514.592 17.5327C514.975 17.026 515.513 16.6354 516.204 16.3608C516.9 16.0862 517.714 15.9489 518.647 15.9489C520.025 15.9489 521.109 16.2401 521.9 16.8224C522.695 17.4048 523.159 18.1979 523.292 19.2017ZM531.248 16.0909V18.3636H524.679V16.0909H531.248ZM526.17 13.4773H529.196V23.6477C529.196 23.9271 529.238 24.1449 529.324 24.3011C529.409 24.4527 529.527 24.5592 529.679 24.6207C529.835 24.6823 530.015 24.7131 530.218 24.7131C530.36 24.7131 530.502 24.7012 530.645 24.6776C530.787 24.6491 530.895 24.6278 530.971 24.6136L531.447 26.8651C531.296 26.9124 531.083 26.9669 530.808 27.0284C530.533 27.0947 530.199 27.1349 529.806 27.1491C529.077 27.1776 528.438 27.0805 527.889 26.858C527.344 26.6354 526.921 26.2898 526.618 25.821C526.315 25.3523 526.165 24.7604 526.17 24.0455V13.4773ZM538.074 27.2131C536.951 27.2131 535.985 26.9858 535.176 26.5312C534.371 26.072 533.751 25.4233 533.315 24.5852C532.879 23.7424 532.662 22.7457 532.662 21.5952C532.662 20.473 532.879 19.4882 533.315 18.6406C533.751 17.7931 534.364 17.1326 535.154 16.6591C535.95 16.1856 536.883 15.9489 537.953 15.9489C538.672 15.9489 539.342 16.0649 539.963 16.2969C540.588 16.5241 541.132 16.8674 541.596 17.3267C542.065 17.786 542.43 18.3636 542.69 19.0597C542.95 19.7509 543.081 20.5606 543.081 21.4886V22.3196H533.869V20.4446H540.233C540.233 20.009 540.138 19.6231 539.949 19.2869C539.759 18.9508 539.496 18.688 539.16 18.4986C538.829 18.3045 538.443 18.2074 538.002 18.2074C537.543 18.2074 537.136 18.3139 536.781 18.527C536.431 18.7353 536.156 19.017 535.957 19.3722C535.758 19.7225 535.656 20.1132 535.652 20.544V22.3267C535.652 22.8665 535.751 23.3329 535.95 23.7259C536.154 24.1188 536.44 24.4219 536.809 24.6349C537.179 24.848 537.617 24.9545 538.123 24.9545C538.459 24.9545 538.767 24.9072 539.047 24.8125C539.326 24.7178 539.565 24.5758 539.764 24.3864C539.963 24.197 540.114 23.965 540.218 23.6903L543.017 23.875C542.875 24.5473 542.583 25.1345 542.143 25.6364C541.708 26.1335 541.144 26.5218 540.453 26.8011C539.766 27.0758 538.973 27.2131 538.074 27.2131ZM545.055 27V16.0909H547.988V17.9943H548.102C548.301 17.3172 548.635 16.8059 549.103 16.4602C549.572 16.1098 550.112 15.9347 550.723 15.9347C550.874 15.9347 551.038 15.9441 551.213 15.9631C551.388 15.982 551.542 16.008 551.674 16.0412V18.7259C551.532 18.6832 551.336 18.6454 551.085 18.6122C550.834 18.5791 550.604 18.5625 550.396 18.5625C549.951 18.5625 549.553 18.6596 549.203 18.8537C548.857 19.0431 548.583 19.3082 548.379 19.6491C548.18 19.9901 548.081 20.383 548.081 20.8281V27H545.055Z" fill="white"/>
</svg>
